<?xml version="1.0" standalone="no"?>
<!DOCTYPE svg PUBLIC "-//W3C//DTD SVG 20010904//EN"
 "http://www.w3.org/TR/2001/REC-SVG-20010904/DTD/svg10.dtd">
<svg version="1.0" xmlns="http://www.w3.org/2000/svg"
 width="1920.000000pt" height="1920.000000pt" viewBox="0 0 1920.000000 1920.000000"
 preserveAspectRatio="xMidYMid meet">

<g transform="translate(0.000000,1920.000000) scale(0.100000,-0.100000)"
fill="#000000" stroke="none">
<path d="M12470 15245 c-265 -69 -499 -252 -610 -478 -61 -124 -81 -218 -81
-367 0 -259 69 -406 322 -695 297 -337 393 -478 445 -651 23 -76 23 -225 0
-314 -36 -143 -137 -299 -258 -399 -82 -68 -258 -154 -373 -181 -100 -25 -125
-40 -125 -80 0 -60 57 -67 205 -25 417 119 686 459 685 863 -1 245 -97 426
-410 772 -175 194 -243 287 -317 435 -53 105 -67 169 -67 290 1 166 53 310
158 437 120 145 336 264 530 293 82 13 114 62 74 113 -15 18 -72 14 -178 -13z"/>
<path d="M13701 15259 c-119 -23 -303 -104 -397 -174 -162 -122 -273 -279
-326 -462 -20 -66 -23 -100 -22 -228 0 -140 2 -156 32 -245 42 -127 112 -241
233 -380 314 -362 382 -452 450 -593 69 -146 86 -272 55 -418 -54 -253 -281
-489 -549 -572 -45 -14 -109 -34 -142 -44 -49 -15 -62 -23 -70 -47 -8 -24 -6
-31 17 -51 32 -28 67 -26 197 12 268 76 492 266 603 510 46 102 68 213 69 349
1 144 -13 201 -81 339 -59 118 -137 225 -290 395 -257 286 -368 453 -406 618
-23 98 -15 252 20 358 79 246 317 444 611 509 113 25 135 38 135 80 0 49 -44
63 -139 44z"/>
<path d="M9365 15229 c-176 -23 -406 -102 -564 -192 -409 -235 -680 -609 -783
-1080 -19 -87 -22 -133 -23 -312 0 -183 3 -224 23 -319 28 -131 68 -248 128
-376 181 -385 539 -699 944 -828 168 -53 254 -65 480 -66 179 -1 220 2 320 23
676 140 1177 667 1276 1344 20 140 15 431 -11 547 -62 282 -206 556 -398 757
-241 252 -520 411 -849 484 -107 24 -423 34 -543 18z m412 -120 c43 -6 118
-22 166 -35 291 -81 504 -209 717 -430 187 -193 312 -432 372 -706 33 -152 33
-439 0 -587 -57 -254 -156 -456 -324 -657 -88 -105 -137 -151 -248 -233 -444
-330 -1039 -382 -1532 -136 -353 177 -620 492 -747 881 -58 178 -66 235 -65
444 0 152 4 203 22 288 132 612 629 1082 1237 1171 87 12 311 13 402 0z"/>
<path d="M9543 13769 c-17 -5 -41 -21 -52 -35 -67 -85 -9 -204 97 -204 51 1
75 14 104 57 39 59 13 143 -54 173 -48 22 -50 22 -95 9z"/>
<path d="M5251 15193 c-13 -10 -23 -30 -24 -43 -1 -16 71 -142 205 -360 113
-184 353 -573 532 -865 l325 -530 -510 -5 c-491 -5 -511 -6 -525 -24 -12 -17
-14 -120 -14 -636 0 -585 1 -618 18 -633 22 -20 52 -22 75 -4 16 11 17 61 19
592 l3 580 508 3 c477 2 508 1 514 -15 4 -10 48 -83 98 -163 51 -80 206 -332
345 -560 139 -228 260 -423 268 -432 34 -40 110 -2 98 48 -4 14 -158 270 -342
570 -185 300 -334 548 -331 550 3 3 47 16 100 29 301 74 524 250 659 520 70
139 90 222 95 400 6 202 -11 287 -92 450 -125 251 -364 446 -635 517 -83 21
-103 22 -726 25 -610 4 -641 3 -663 -14z m1349 -117 c100 -27 276 -118 345
-178 140 -123 236 -272 282 -438 25 -93 25 -348 -1 -440 -27 -99 -91 -227
-154 -309 -135 -176 -381 -309 -579 -314 l-66 -2 -458 750 c-252 413 -486 794
-519 847 -33 53 -60 100 -60 103 0 4 258 5 573 2 504 -3 580 -6 637 -21z"/>
<path d="M13253 11096 c-93 -30 -133 -84 -133 -181 0 -107 53 -157 214 -206
135 -40 188 -65 228 -106 28 -29 33 -41 33 -81 0 -60 -29 -102 -93 -134 -41
-20 -62 -23 -157 -23 -95 0 -117 3 -163 24 -37 17 -56 21 -64 13 -17 -17 59
-59 130 -73 69 -13 185 -7 242 12 19 6 50 23 68 36 90 67 104 189 30 260 -45
43 -94 65 -227 104 -103 29 -120 37 -163 79 -43 42 -48 51 -48 91 0 64 27 110
80 137 40 21 56 23 140 20 81 -3 102 -8 143 -30 38 -22 49 -24 53 -13 9 22 -4
35 -54 58 -59 25 -199 33 -259 13z"/>
<path d="M7812 10978 c-28 -68 -98 -235 -156 -372 -58 -138 -106 -254 -106
-259 0 -5 8 -7 17 -5 11 2 36 49 73 138 64 153 180 426 204 483 9 20 20 37 24
37 4 0 15 -19 23 -42 9 -24 67 -160 128 -303 61 -143 109 -266 106 -272 -3
-10 -55 -13 -210 -13 -176 0 -205 -2 -205 -15 0 -13 33 -15 240 -15 132 0 240
2 240 4 0 2 -25 64 -56 137 -31 74 -89 213 -129 309 -71 171 -134 310 -140
310 -1 0 -25 -55 -53 -122z"/>
<path d="M5572 10718 c3 -346 4 -373 21 -376 16 -3 17 18 17 332 0 185 3 336
8 336 4 0 14 -12 23 -28 10 -15 102 -164 207 -332 140 -224 196 -306 211 -308
21 -3 21 -3 21 372 0 369 0 376 -20 376 -20 0 -20 -7 -20 -332 0 -283 -2 -330
-14 -318 -7 8 -96 148 -196 310 -218 351 -209 339 -238 340 l-22 0 2 -372z"/>
<path d="M9652 10718 c3 -346 4 -373 21 -376 16 -3 17 20 17 372 0 370 0 376
-20 376 -20 0 -20 -5 -18 -372z"/>
<path d="M11250 10715 l0 -375 220 0 c189 0 220 2 220 15 0 13 -25 15 -162 15
-90 0 -180 3 -200 6 l-38 7 0 353 c0 347 0 354 -20 354 -20 0 -20 -7 -20 -375z"/>
</g>
</svg>
